<?xml version="1.0" standalone="no"?>
<!DOCTYPE svg PUBLIC "-//W3C//DTD SVG 20010904//EN"
 "http://www.w3.org/TR/2001/REC-SVG-20010904/DTD/svg10.dtd">
<svg version="1.0" xmlns="http://www.w3.org/2000/svg"
 width="450" height="450" viewBox="0 0 4500.000000 4500.000000"
 preserveAspectRatio="xMidYMid meet">

<g transform="translate(0.000000,4500.000000) scale(0.100000,-0.100000)"
fill="#FF0000" stroke="none">
<path d="M9870 26551 c-97 -31 -160 -70 -410 -251 -135 -97 -486 -349 -780
-560 -294 -210 -587 -424 -651 -476 -324 -261 -440 -469 -439 -791 0 -65 5
-152 10 -193 14 -106 61 -353 70 -363 4 -4 23 19 44 52 276 447 712 744 1320
897 152 39 420 86 591 104 61 6 116 14 123 16 9 3 -5 26 -40 67 -238 274 -368
524 -370 711 -2 103 14 171 63 271 80 165 192 278 308 312 110 32 296 7 473
-64 l38 -15 -61 -67 c-224 -243 -212 -394 41 -515 295 -142 761 -222 1252
-214 l197 3 -352 255 c-891 646 -1103 793 -1183 820 -71 25 -170 25 -244 1z"/>
<path d="M9761 25558 c64 -127 161 -248 258 -322 179 -138 368 -196 781 -241
439 -48 587 -89 773 -213 80 -53 188 -166 235 -245 80 -133 110 -305 78 -441
-43 -183 -194 -345 -376 -406 -100 -34 -211 -26 -310 22 -98 48 -177 119 -221
200 -33 61 -34 67 -34 173 0 105 2 114 33 178 55 112 154 167 277 154 101 -10
180 -69 209 -155 45 -130 -2 -195 -165 -230 l-82 -18 35 -22 c48 -30 114 -52
155 -52 117 0 223 141 223 298 0 95 -28 149 -125 241 -128 121 -261 170 -386
141 -98 -22 -229 -91 -300 -158 -115 -107 -162 -228 -163 -417 -1 -320 179
-558 490 -647 111 -32 330 -32 449 1 443 120 685 528 589 994 -60 290 -279
548 -588 692 -187 87 -356 125 -671 150 -238 19 -396 39 -523 65 -207 43 -425
136 -578 246 -42 30 -77 54 -80 54 -2 0 5 -19 17 -42z"/>
<path d="M20241 25085 c-156 -35 -276 -92 -397 -189 -171 -137 -295 -340 -356
-583 -31 -120 -33 -432 -4 -562 94 -432 311 -691 663 -793 68 -20 99 -23 248
-22 187 1 271 17 377 70 185 93 350 278 432 485 46 118 60 194 60 329 -1 106
-4 134 -24 184 -30 79 -78 130 -148 158 -54 21 -72 22 -382 24 -190 1 -338 -2
-357 -7 -42 -13 -89 -68 -104 -121 -6 -23 -9 -75 -7 -115 4 -87 23 -117 93
-153 47 -23 59 -24 230 -25 192 -2 223 -8 251 -50 24 -36 12 -80 -45 -167 -89
-137 -187 -199 -328 -206 -69 -4 -96 0 -167 22 -120 37 -198 93 -262 188 -91
133 -130 293 -121 492 9 211 75 382 197 506 75 77 145 114 243 130 125 20 242
-10 446 -113 98 -49 133 -62 170 -62 59 0 98 27 134 93 60 110 40 200 -64 296
-69 65 -228 146 -344 177 -105 28 -339 36 -434 14z"/>
<path d="M21983 25055 c-163 -36 -241 -126 -279 -325 -27 -139 -36 -424 -32
-1025 5 -652 5 -655 69 -709 51 -43 106 -48 571 -44 l433 3 50 25 c113 56 139
231 49 317 -60 56 -108 65 -396 70 -226 5 -261 8 -287 24 -54 33 -65 69 -66
209 0 148 13 181 85 218 44 23 50 23 230 17 180 -6 186 -6 229 17 62 32 85 80
86 178 0 88 -20 132 -75 165 -31 17 -59 21 -238 27 -232 7 -261 15 -296 84
-31 59 -30 214 2 265 38 61 58 66 332 72 145 4 259 11 280 18 76 26 110 81
110 181 0 125 -44 155 -270 187 -300 43 -475 50 -587 26z"/>
<path d="M23614 25045 c-90 -16 -134 -30 -205 -66 -139 -69 -168 -168 -135
-454 10 -89 14 -287 15 -760 1 -418 5 -654 12 -680 23 -85 81 -125 182 -125
90 0 152 48 177 139 5 20 15 154 20 299 6 145 15 273 19 285 5 12 21 33 36 47
23 22 37 25 112 29 97 4 154 -13 196 -57 14 -15 96 -166 181 -336 86 -170 167
-324 181 -341 32 -43 87 -68 151 -67 113 1 189 80 189 197 0 56 -6 74 -83 225
-131 263 -161 380 -128 508 20 78 42 123 101 198 109 140 135 206 135 343 0
218 -128 429 -311 515 -183 86 -633 140 -845 101z m464 -405 c176 -19 236 -68
249 -203 7 -77 -9 -137 -48 -181 -48 -56 -99 -68 -299 -73 -157 -4 -179 -2
-210 15 -99 53 -121 290 -37 386 56 64 139 78 345 56z"/>
<path d="M26011 25016 c-48 -17 -108 -71 -133 -119 -47 -92 -220 -555 -460
-1227 -128 -358 -131 -367 -135 -466 -4 -63 -1 -114 6 -136 32 -97 168 -142
257 -83 14 9 44 41 67 72 150 201 300 292 482 292 98 1 152 -11 231 -50 82
-41 152 -104 224 -204 76 -105 106 -128 180 -133 123 -9 212 85 197 207 -5 40
-159 487 -360 1047 -127 352 -239 640 -269 686 -65 104 -184 151 -287 114z
m159 -895 c83 -140 104 -262 57 -332 -41 -61 -109 -69 -251 -28 l-69 20 7 47
c19 141 75 283 142 360 44 52 41 53 114 -67z"/>
<path d="M29775 25024 c-11 -2 -45 -9 -75 -15 -74 -14 -219 -86 -303 -150 -37
-28 -135 -117 -217 -198 -130 -127 -154 -155 -184 -219 -61 -130 -58 -231 14
-380 22 -46 40 -91 40 -100 0 -9 -11 -57 -25 -107 -70 -250 -499 -2037 -609
-2535 -143 -648 -176 -845 -176 -1065 0 -392 111 -657 297 -711 145 -42 280
27 425 220 68 90 133 221 241 486 423 1036 716 2163 981 3775 l54 330 -8 195
c-6 166 -11 204 -30 254 -43 112 -133 181 -275 211 -68 14 -109 17 -150 9z"/>
<path d="M27460 25009 c-41 -12 -75 -42 -98 -84 -16 -27 -17 -111 -17 -930 l0
-900 25 -45 c65 -118 265 -121 324 -5 21 40 21 51 21 950 0 897 0 910 -20 945
-12 19 -35 43 -53 53 -38 22 -133 31 -182 16z"/>
<path d="M16280 24999 c-540 -25 -990 -157 -1367 -401 -96 -61 -360 -265 -437
-337 -62 -58 -96 -118 -96 -170 0 -63 29 -107 88 -134 45 -21 58 -22 317 -19
149 2 333 9 410 17 203 20 270 4 302 -73 12 -30 13 -46 3 -96 -12 -64 -31
-111 -178 -446 -176 -402 -395 -967 -590 -1520 -287 -816 -447 -1421 -531
-2015 -50 -354 -56 -447 -56 -910 0 -370 2 -443 18 -525 34 -184 82 -294 149
-343 14 -11 50 -22 78 -25 126 -12 331 150 485 383 157 237 375 742 503 1165
231 757 471 1905 627 2992 39 277 59 433 121 943 43 357 107 483 261 516 147
30 618 -42 836 -129 291 -117 451 -359 451 -682 0 -234 -91 -431 -297 -647
-132 -137 -209 -195 -632 -477 -425 -283 -526 -355 -603 -430 -63 -61 -80
-107 -58 -159 32 -78 77 -83 306 -32 718 160 1314 442 1816 859 335 280 501
536 575 889 28 130 30 349 6 484 -38 209 -138 440 -261 603 -87 116 -254 274
-367 350 -229 151 -532 265 -851 319 -229 40 -733 64 -1028 50z"/>
<path d="M10102 24901 c-24 -12 -57 -30 -74 -42 -43 -31 -105 -131 -119 -194
-10 -47 -10 -57 7 -91 24 -48 77 -76 147 -78 l52 -1 -1 35 c-1 19 -7 60 -14
91 -26 108 21 154 156 154 72 0 84 -3 116 -27 50 -38 72 -100 66 -183 -13
-158 -135 -249 -333 -247 -84 0 -153 14 -300 62 -496 162 -918 127 -1292 -106
-40 -25 -73 -47 -73 -48 0 -2 43 12 96 31 188 65 272 77 534 78 202 0 252 -4
355 -23 152 -29 304 -69 481 -127 215 -72 338 -73 474 -5 143 72 232 222 233
395 0 62 -4 91 -22 130 -32 72 -100 137 -185 176 -62 29 -83 34 -166 36 -79 3
-102 0 -138 -16z"/>
<path d="M31797 24040 c-175 -57 -362 -165 -525 -303 -229 -194 -292 -339
-217 -505 46 -102 118 -150 288 -193 78 -19 96 -20 155 -11 111 19 203 71 308
176 134 135 219 277 290 489 59 175 55 239 -20 313 -70 71 -141 80 -279 34z"/>
<path d="M8845 23929 c-273 -28 -584 -104 -965 -237 -183 -63 -225 -92 -248
-168 -16 -54 -18 -5483 -2 -5582 19 -113 47 -171 119 -243 52 -51 89 -76 171
-117 57 -28 106 -50 107 -48 2 2 -10 70 -26 152 -45 221 -61 358 -68 564 -15
469 81 830 310 1170 108 160 401 443 537 520 11 6 -5 29 -71 102 -662 722
-875 1465 -653 2277 95 344 243 610 464 831 141 142 262 229 445 320 259 129
606 219 940 242 l40 3 -79 49 c-214 133 -649 203 -1021 165z"/>
<path d="M12285 23274 c-132 -93 -338 -171 -525 -199 -101 -16 -350 -19 -462
-6 -38 4 -68 6 -68 4 0 -1 27 -44 61 -95 123 -188 222 -420 266 -628 25 -120
25 -391 -1 -510 -66 -306 -232 -605 -497 -897 -98 -107 -104 -127 -104 -328 0
-152 2 -178 24 -243 49 -150 135 -258 335 -420 479 -389 693 -777 712 -1292 5
-154 13 -157 -73 30 -92 198 -272 430 -468 600 -146 128 -291 234 -595 435
-300 199 -408 288 -484 403 -51 77 -69 132 -56 168 12 31 45 31 146 2 68 -20
78 -21 102 -7 39 21 62 74 62 142 0 73 -26 127 -81 167 -93 67 -216 59 -297
-19 -168 -163 -199 -391 -80 -586 73 -120 262 -317 416 -433 42 -32 136 -97
207 -144 663 -435 1003 -945 1099 -1646 9 -62 16 -141 16 -175 0 -95 6 -98 91
-47 107 64 197 158 248 261 48 97 68 186 72 314 7 207 -2 5185 -8 5184 -5 0
-30 -16 -58 -35z"/>
<path d="M40610 22905 c-98 -59 -153 -76 -275 -82 -78 -4 -137 1 -270 22 -205
33 -555 45 -727 25 -444 -51 -859 -227 -1213 -515 -126 -102 -327 -311 -417
-431 -184 -248 -304 -505 -355 -761 -25 -125 -24 -383 1 -518 125 -671 631
-950 1366 -754 279 74 474 169 665 323 105 85 193 126 269 126 100 0 148 -30
306 -193 162 -167 262 -244 395 -308 146 -70 249 -93 415 -93 224 1 382 53
475 156 92 102 131 242 85 300 -11 15 -62 47 -113 71 -157 76 -400 278 -487
407 -91 135 -114 215 -114 395 1 195 33 348 209 1001 53 195 100 391 105 436
13 114 -2 215 -46 305 -43 89 -85 124 -152 130 -42 3 -55 -1 -122 -42z m-840
-726 c148 -24 220 -104 220 -246 0 -102 -13 -150 -76 -278 -189 -386 -702
-874 -1033 -985 -77 -26 -187 -30 -256 -10 -76 21 -147 97 -175 186 -89 283
23 589 324 889 257 255 549 413 831 448 59 8 101 7 165 -4z"/>
<path d="M36660 22914 c-14 -2 -68 -11 -120 -20 -218 -37 -487 -150 -715 -302
-143 -95 -323 -239 -534 -426 -85 -75 -158 -133 -162 -129 -4 5 -28 79 -53
167 -104 357 -205 515 -383 603 -73 36 -83 38 -187 41 -88 3 -130 -1 -200 -17
-206 -49 -508 -208 -771 -405 -163 -122 -417 -376 -473 -472 -44 -75 -87 -120
-127 -130 -33 -8 -87 12 -116 42 -24 26 -24 26 -21 227 4 238 -8 318 -68 443
-69 144 -225 262 -406 308 -172 44 -243 -2 -265 -171 -67 -531 -116 -731 -334
-1368 -199 -582 -239 -781 -261 -1295 -5 -132 -4 -161 10 -195 36 -85 102
-126 216 -133 133 -8 232 43 404 208 169 163 307 328 696 835 311 405 452 565
650 738 184 161 260 188 332 117 35 -35 37 -90 8 -176 -12 -32 -30 -102 -41
-154 -12 -52 -50 -201 -86 -330 -96 -348 -123 -486 -130 -665 -6 -163 7 -324
32 -395 31 -87 104 -140 192 -140 69 0 117 28 260 154 202 178 293 281 563
641 157 208 408 527 498 630 68 79 248 257 312 310 135 110 321 217 401 231
29 4 41 1 64 -18 25 -22 27 -30 27 -89 0 -35 -21 -183 -46 -329 -25 -146 -50
-327 -56 -403 -45 -567 221 -988 705 -1113 85 -22 123 -26 250 -27 178 -1 243
14 305 69 84 76 75 151 -34 270 -76 83 -137 175 -168 253 -19 48 -22 75 -23
191 0 168 7 193 155 535 223 517 335 862 385 1181 49 309 -44 538 -260 645
-34 16 -85 37 -115 45 -54 15 -261 27 -310 18z"/>
<path d="M9820 22883 c-249 -24 -405 -75 -572 -186 -264 -175 -454 -472 -498
-776 -18 -117 -7 -407 19 -532 54 -263 170 -505 359 -749 107 -137 469 -490
503 -490 26 0 104 208 119 318 28 206 -45 366 -266 582 -65 64 -138 147 -164
186 -122 187 -150 460 -70 706 41 129 91 211 185 305 68 67 99 89 176 126 110
53 169 67 285 67 182 0 381 -105 473 -248 50 -79 64 -149 59 -287 -3 -67 -9
-128 -14 -137 -7 -13 -22 2 -74 79 -86 127 -155 197 -225 230 -115 52 -275 14
-380 -91 -69 -70 -80 -97 -80 -206 0 -80 4 -105 26 -158 84 -197 215 -323 384
-367 76 -19 224 -19 300 0 112 28 202 81 290 169 89 88 140 169 180 285 73
215 54 428 -60 656 -94 191 -234 339 -397 421 -152 76 -375 115 -558 97z"/>
<path d="M21835 22716 c-117 -37 -145 -106 -110 -271 21 -100 19 -262 -5 -361
-10 -45 -67 -199 -125 -343 -247 -611 -392 -1043 -510 -1520 -25 -101 -47
-186 -48 -188 -7 -6 -153 125 -198 178 -105 124 -173 253 -203 389 -20 86 -23
258 -6 349 26 145 164 617 274 936 54 155 66 202 66 253 0 110 -61 247 -143
319 -69 61 -133 57 -246 -13 -141 -87 -160 -96 -220 -101 -76 -7 -142 9 -266
65 -252 113 -493 129 -823 56 -747 -166 -1494 -806 -1778 -1524 -94 -240 -129
-421 -121 -648 5 -182 24 -269 87 -397 116 -240 345 -410 636 -470 255 -53
535 -35 794 51 188 63 322 137 600 335 100 71 169 95 228 80 56 -16 115 -62
170 -134 118 -156 249 -271 387 -340 162 -81 318 -112 522 -104 167 6 288 35
429 101 206 98 285 171 552 516 403 519 563 709 885 1048 303 318 400 394 543
422 157 31 335 -61 404 -207 38 -81 51 -175 60 -447 9 -265 18 -331 60 -456
102 -302 341 -588 605 -722 154 -79 275 -108 455 -110 113 -1 131 1 174 21 78
38 124 133 97 199 -7 16 -61 75 -121 131 -235 219 -340 398 -340 577 0 134 32
250 164 591 106 277 160 445 192 603 95 469 -25 892 -295 1034 -88 46 -173 66
-289 66 -115 0 -209 -19 -378 -75 -384 -127 -757 -354 -1254 -763 -172 -142
-208 -159 -269 -128 -40 21 -52 58 -62 190 -20 276 -88 482 -214 646 -119 154
-232 206 -360 166z m-1980 -1007 c62 -18 102 -65 110 -130 20 -159 -77 -451
-230 -694 -211 -336 -465 -575 -690 -650 -273 -92 -479 -29 -557 171 -43 108
-42 295 2 425 131 388 627 802 1059 884 84 16 241 13 306 -6z"/>
<path d="M28110 22684 c-175 -57 -411 -72 -724 -45 -290 25 -492 11 -721 -48
-650 -169 -1233 -706 -1440 -1325 -67 -200 -79 -278 -79 -501 0 -233 12 -296
90 -455 40 -82 60 -108 143 -190 78 -78 112 -103 181 -137 194 -95 400 -121
665 -82 39 6 144 36 235 66 138 47 180 57 256 61 56 3 94 1 97 -5 8 -13 -30
-107 -93 -232 -232 -462 -620 -787 -1220 -1024 -538 -212 -1122 -336 -1785
-376 -597 -37 -987 -23 -2530 94 -324 25 -603 45 -619 45 l-30 0 49 -51 c135
-138 277 -227 506 -318 640 -253 1324 -425 1969 -495 375 -41 916 -46 1270
-11 1077 105 1788 391 2335 940 272 273 401 467 660 990 680 1376 972 2146
1035 2735 19 175 -5 306 -65 359 -44 38 -80 39 -185 5z m-771 -720 c92 -54 80
-204 -36 -454 -111 -239 -346 -585 -502 -740 -117 -116 -156 -135 -286 -135
-232 1 -374 110 -392 300 -12 134 32 271 140 433 190 285 554 548 837 608 83
17 199 11 239 -12z"/>
<path d="M30955 22631 c-57 -24 -105 -93 -295 -426 -393 -690 -611 -1268 -695
-1845 -38 -258 23 -468 184 -630 128 -129 259 -176 461 -168 136 6 202 33 241
100 23 40 24 53 26 210 3 257 45 462 170 824 236 686 260 767 283 969 13 118
13 343 -1 441 -30 215 -158 468 -263 518 -37 17 -79 20 -111 7z"/>
<path d="M8885 19732 c-78 -38 -168 -150 -299 -375 -163 -278 -233 -504 -243
-782 -8 -241 25 -440 108 -644 104 -255 284 -452 504 -552 114 -52 223 -72
350 -66 137 7 201 24 335 89 90 43 117 63 186 132 59 59 90 100 113 149 101
213 74 484 -62 621 -109 108 -291 154 -421 106 -94 -36 -178 -146 -193 -255
-11 -81 31 -132 190 -230 44 -26 91 -58 105 -70 l26 -23 -84 -28 c-69 -22
-104 -28 -185 -28 -94 -1 -105 1 -167 32 -92 45 -163 126 -228 256 -27 56 -58
135 -70 176 -82 304 -12 623 197 900 52 69 190 205 271 267 39 31 72 59 72 63
0 9 -141 129 -220 187 -118 87 -209 111 -285 75z"/>
<path d="M9485 19316 c-44 -20 -80 -63 -114 -136 -28 -61 -71 -196 -84 -266
l-6 -31 167 -6 c383 -14 668 -137 858 -372 239 -294 278 -742 96 -1088 -187
-356 -596 -603 -1127 -682 -60 -9 -127 -19 -149 -23 l-38 -7 203 -137 c112
-75 240 -166 284 -203 194 -164 325 -215 480 -186 79 15 204 76 285 139 197
155 397 302 665 487 366 254 475 336 580 441 238 235 207 399 -162 866 -98
124 -221 252 -318 330 -93 75 -1093 704 -1271 799 -158 85 -272 109 -349 75z"/>
</g>
</svg>
